{"title":"Chashme Baddoor (2013) 720p BRrip x264 AC3 5.1 Junaid-Zia (PimpR","uid":8773880,"size":1586524325,"categoryP":"video","categoryS":"hd___movies","magnet":"?xt=urn:btih:83a978855836c1c407b5b70955f8de434df1875f&amp;dn=Chashme+Baddoor+%282013%29+720p+BRrip+x264+AC3+5.1+Junaid-Zia+%28PimpR&amp;tr=udp%3A%2F%2Ftracker.openbittorrent.com%3A80&amp;tr=udp%3A%2F%2Fopen.demonii.com%3A1337&amp;tr=udp%3A%2F%2Ftracker.coppersurfer.tk%3A6969&amp;tr=udp%3A%2F%2Fexodus.desync.com%3A6969","seeders":1,"leechers":0,"uploader":"junaidzia","files":15,"time":1375508146,"description":"[IMG]http://imageshack.us/a/img713/9855/x0yn.jpg[/IMG]\n\n\nIMDB : [url]http://www.imdb.com/title/tt2229848/[/url]\n\n\n[b]General[/b]\nFormat                         : Matroska\nFile size                      : 1.46 GiB\nDuration                       : 2h 4mn\nOverall bit rate               : 1 686 Kbps\n\n\n[b]Video[/b]\nID                             : 1\nFormat                         : AVC\nFormat/Info                    : Advanced Video Codec\nFormat profile                 : &lt;a class=&quot;__cf_email__&quot; href=&quot;/cdn-cgi/l/email-protection&quot; data-cfemail=&quot;baf2d3ddd2faf68e948a&quot;&gt;[email&amp;#160;protected]&lt;/a&gt;&lt;script cf-hash='f9e31' type=&quot;text/javascript&quot;&gt;\n/* &lt;![CDATA[ */!function(){try{var t=&quot;currentScript&quot;in document?document.currentScript:function(){for(var t=document.getElementsByTagName(&quot;script&quot;),e=t.length;e--;)if(t[e].getAttribute(&quot;cf-hash&quot;))return t[e]}();if(t&amp;&amp;t.previousSibling){var e,r,n,i,c=t.previousSibling,a=c.getAttribute(&quot;data-cfemail&quot;);if(a){for(e=&quot;&quot;,r=parseInt(a.substr(0,2),16),n=2;a.length-n;n+=2)i=parseInt(a.substr(n,2),16)^r,e+=String.fromCharCode(i);e=document.createTextNode(e),c.parentNode.replaceChild(e,c)}}}catch(u){}}();/* ]]&gt; */&lt;/script&gt;\nFormat settings, CABAC         : Yes\nFormat settings, ReFrames      : 8 frames\nCodec ID                       : V_MPEG4/ISO/AVC\nDuration                       : 2h 4mn\nBit rate                       : 1 429 Kbps\nWidth                          : 1 280 pixels\nHeight                         : 544 pixels\nDisplay aspect ratio           : 2.35:1\nFrame rate mode                : Constant\nFrame rate                     : 24.000 fps\nColor space                    : YUV\nChroma subsampling             : 4:2:0\nBit depth                      : 8 bits\nScan type                      : Progressive\nBits/(Pixel*Frame)             : 0.086\nStream size                    : 1.21 GiB (83%)\nTitle                          : Encoder Junaid Zia\n\nLanguage                       : Hindi\nDefault                        : Yes\nForced                         : No\n\n[b]Audio[/b]\nID                             : 2\nFormat                         : AC-3\nFormat/Info                    : Audio Coding 3\nMode extension                 : CM (complete main)\nFormat settings, Endianness    : Big\nCodec ID                       : A_AC3\nDuration                       : 2h 4mn\nBit rate mode                  : Constant\nBit rate                       : 256 Kbps\nChannel(s)                     : 6 channels\nChannel positions              : Front: L C R, Side: L R, LFE\nSampling rate                  : 48.0 KHz\nBit depth                      : 16 bits\nCompression mode               : Lossy\nStream size                    : 228 MiB (15%)\nTitle                          : Encoder Junaid Zia\nLanguage                       : Hindi\nDefault                        : Yes\nForced                         : No\nSubtitles File                 : NO\n\n\n\n[IMG]http://imageshack.us/a/img593/1034/i0mb.jpg[/IMG]\n[IMG]http://imageshack.us/a/img202/6972/xub1.jpg[/IMG]\n[IMG]http://imageshack.us/a/img692/6761/3ogb.jpg[/IMG]\n[IMG]http://imageshack.us/a/img837/5003/v8sx.jpg[/IMG]\n[IMG]http://imageshack.us/a/img90/998/oy9o.jpg[/IMG]\n[IMG]http://imageshack.us/a/img191/2217/gt47.jpg[/IMG]\n[IMG]http://imageshack.us/a/img407/299/h4p9.jpg[/IMG]\n[IMG]http://imageshack.us/a/img849/175/b0cm.jpg[/IMG]\n[IMG]http://imageshack.us/a/img534/7963/oaw5.jpg[/IMG]\n[IMG]http://imageshack.us/a/img194/1663/2cjd.jpg[/IMG]\n\n\n\n\nPimpRG Facebook Page:\n\nSujaidr Facebook Page:\n\n[b]Seed After Downloading, Remember Sharing is Caring.[/b]","torrent":{"xt":"urn:btih:83a978855836c1c407b5b70955f8de434df1875f","amp;dn":"Chashme+Baddoor+%282013%29+720p+BRrip+x264+AC3+5.1+Junaid-Zia+%28PimpR","amp;tr":["udp%3A%2F%2Ftracker.openbittorrent.com%3A80","udp%3A%2F%2Fopen.demonii.com%3A1337","udp%3A%2F%2Ftracker.coppersurfer.tk%3A6969","udp%3A%2F%2Fexodus.desync.com%3A6969"],"infoHash":"83a978855836c1c407b5b70955f8de434df1875f","infoHashBuffer":{"type":"Buffer","data":[131,169,120,133,88,54,193,196,7,181,183,9,85,248,222,67,77,241,135,95]},"announce":[],"urlList":[]}}